<?xml version="1.0" encoding="UTF-8"?>
<svg id="Layer_2" data-name="Layer 2" xmlns="http://www.w3.org/2000/svg" viewBox="0 0 1455.83 481.62">
  <defs>
    <style>
      .cls-1 {
        fill: #b1a080;
      }
    </style>
  </defs>
  <g id="Layer_1-2" data-name="Layer 1">
    <g>
      <g>
        <path class="cls-1" d="M84.19,353.37c-2.53,4.7-9.73,6.66-14.08,3.14-8.68-6.83,4.8-33.55,5.17-41.32,8.37-31.39,17.11-60.38,19.99-89.93,3.15-34.27-1.62-65.74-11.14-98.21-17.67-69.27-38.86-46.09-78.81-19.07C3.06,109.52,0,107.89,0,105.17h0c0-1.03.47-2,1.27-2.65,30.07-24.06,63.86-62.54,92.63-21.09,34.57,50.15,25.02,108.14,26.83,164.57,71.58-102.17,121.8-166.13,218.22-215.89,8.47-4.37,17.1-8.46,25.84-12.26,16.99-7.38,61.95-30.71,58.61-8.48-1.89,13.32-13.12,18.45-28.59,22.11-137.64,36-253.1,183.26-300.43,299.81l-10.19,22.08Z"/>
        <path class="cls-1" d="M204.68,283.61c-14.76,30.74,4.32,40.43,27.87,26.83,22.98-13.24,38.1-35.07,57.38-53.83.22-.22.5-.38.81-.44,7.03-1.45,12.01,5.55,8.82,12.74-42.3,104.47,55.23,24.83,78.03-8.28,22.2-28.57,26.11-69.77,41.71-104.12,1.15-2.52,2.2-5.08,3.26-7.64,11.05-26.54,67.8-125.35,82.79-85.68,1.75,4.63,2.18,9.65,1.52,14.55-8.59,63.42-48.95,107.79-82.45,154.79-10.43,14.63-16.08,32.28-15.38,50.24,1.64,42.15,35.83,56.44,76.11,22.93,2.87-2.39,5.72-4.8,8.63-7.13,22.51-18.02,36.15-44.22,56.98-61.65,19.15-15.73,66.09-37.69,67.9-1.91,0,.19-.01.4-.06.59-17.89,68.73-97.75,25.14-84,74.98,15.26,48.25,96.89-23.22,117.98-42.87,1.58-1.48,3.21-2.88,4.84-4.31,15.74-13.89,37.91-54,44.65-36.22.08.21.13.45.14.67.36,6.78-1.07,3.94-2.6,8.65-.02.05-.04.1-.06.14-6.03,12.23-22.79,46.25-29.29,59.44-.71,1.44.97,2.88,2.3,1.98,162.95-110.55,115.11-51.72,114.38,9.63-.04,3.05,1.45,6.02,4.06,7.59,19.56,11.76,78.11-51.12,88.7-68.94.62-1.04-.08-2.35-1.28-2.41l-12.99-.63c-.97-.05-1.65-.94-1.47-1.9.57-3.1-.4-6.86,3.04-5.64.11.04.24.08.36.09,44.88,6.2,54.73-84.06,81.24-61.99.56.46.7,1.27.37,1.91-8.77,17.28-17.57,34.61-27.66,54.47-.55,1.09.23,2.39,1.46,2.39h46.59c.87,0,1.58.7,1.59,1.57.01,1.63.04,3.57.05,5.22,0,.93-.8,1.65-1.72,1.58-88.74-7.25-91.91,77.43-66.4,82.11.11.02.23.03.34.03,44.58.45,95.86-69.29,112.38-92.14,5.89-10.87,20.65-2.28,13.85,8.36-7.55,17.87-17.6,34.46-25.85,52.33-.03.07-.06.14-.08.21-20.35,59.79,47.78,6.88,61.63-6.79.03-.03.06-.06.1-.09,29.82-22.24,56.52-66.55,64.4-57.93,11.13,5.2-25.28,59.63-29.1,73.04-.4,1.39,1.17,2.52,2.37,1.7,32.05-21.8,144.8-116.48,118.81-30.12-2.39,8.62-4.79,18.76-4.86,27.56,0,.15.02.31.05.46,12.12,56.54,85.09-38.53,106.69-56.95,55.18-47.05,96.67-7.42,54.55-9.68-.05,0-.1,0-.15,0-66.86,1.98-85.98,81.1-37.17,94.56.12.03.24.06.37.07,30.3,2.92,61.38-42.25,36.02-66.76-1.95-1.89-3.25-4.4-3.3-7.11-.18-11.26,13.86-.48,20.35,2.57,19.45,8.15,40.22,2.58,58.41-6.45.48-.24,1.05-.21,1.51.05,7.01,4.04-10.59,16.95-14.88,18-13.47,5.06-29.8.22-38.77,11.95-7.51,7.87-6.16,19.47-11.41,29.24-30.36,57.19-98.12,54.22-95.22-16.05.06-1.34-1.47-2.15-2.55-1.34-23.49,17.54-57.18,51.57-84.32,42.31-22.32-9.36-7.83-67.31-5.23-74.69.14-.39.09-.82-.11-1.18-4.59-7.94-42.5,24.01-45.28,24.51-38.33,22.67-95.69,84.11-76.93,13.07.39-1.47-1.3-2.61-2.52-1.69-17.23,13.11-29.67,25.01-47.83,34.88-28.53,17.11-60.26,17.34-55.83-24.88.15-1.46-1.57-2.35-2.64-1.35-44.17,41.37-110.84,66.03-102.97-15.57.14-1.48-1.64-2.35-2.7-1.3-63.28,62.9-108.91,64.37-101.37,6.85.01-.09.1-.55.11-.64,2.93-19.18,12.83-33.54,3.53-32.47-49.86,18.19-83.35,45.97-118.79,76.85-3.69-1.39-4.48-1.68-8.17-3.07-1.47-12.2.81-22.56,4.15-34.39.44-1.55-1.45-2.7-2.62-1.59-40.35,38.26-128.95,93.35-129.19,7.09,0-1.41-1.68-2.13-2.71-1.16-60.13,57.12-115.8,69.76-122.25-28.53-.09-1.35-1.7-1.99-2.67-1.06-39.38,37.88-100.17,108.34-121.75,33.94-.33-1.12-1.69-1.54-2.57-.78-20.31,17.65-44.26,36.6-68.63,29.11-42.47-14.95,5.24-87.76,34.68-108.94,80.22-62.63,157.79-10.42,104.98,27.89-5.95,3.98-13.2-2.39-10.13-8.83,31.9-43.04-32.81-38.85-71.22-13.3-33.08,21.19-45.66,50.61-45.72,50.67ZM484.63,77.59c-32.26,35.13-49.96,77.69-59.55,124.38-.33,1.63,1.74,2.63,2.79,1.34,29.61-36.44,53.82-75.63,63.91-122.02.91-4.19-4.25-6.86-7.14-3.7ZM547.69,270c27.16,1.29,59.45-19.01,53.34-37.08-.1-.28-.27-.55-.49-.75-12.69-11.4-45.7,14.39-54.22,35.64-.4,1.01.28,2.14,1.37,2.19Z"/>
        <path class="cls-1" d="M1039.03,191.52c-.32-22.33,29.07-27.99,30.17-17.91-2.77,6.36-30.28,32.22-30.17,17.91Z"/>
      </g>
      <g>
        <path class="cls-1" d="M431.66,478.94c-3.05-1.78-5.41-4.31-7.09-7.58-1.68-3.27-2.51-7.07-2.51-11.38v-15.93c0-4.31.84-8.1,2.51-11.38,1.68-3.27,4.04-5.81,7.09-7.61,3.05-1.79,6.58-2.69,10.6-2.69,3.33,0,6.39.71,9.18,2.13,2.79,1.42,5.13,3.44,7.01,6.05,1.88,2.61,3.15,5.63,3.81,9.06h-8.34c-.51-1.81-1.35-3.43-2.53-4.85-1.18-1.42-2.57-2.52-4.17-3.29-1.6-.77-3.25-1.16-4.95-1.16-2.37,0-4.44.57-6.23,1.72-1.78,1.14-3.17,2.75-4.15,4.81-.99,2.06-1.48,4.46-1.48,7.2v15.93c0,2.71.49,5.11,1.48,7.19.98,2.08,2.37,3.68,4.15,4.81,1.78,1.13,3.86,1.7,6.23,1.7,1.73,0,3.39-.36,4.97-1.08,1.58-.72,2.97-1.78,4.15-3.19,1.18-1.41,2.03-3.09,2.53-5.03h8.34c-.67,3.43-1.94,6.45-3.83,9.06-1.89,2.61-4.23,4.62-7.03,6.05-2.79,1.42-5.84,2.13-9.14,2.13-4.02,0-7.55-.89-10.6-2.67Z"/>
        <path class="cls-1" d="M497.56,422.97h8.14s0,58.04,0,58.04h-8.14s0-58.04,0-58.04ZM502.63,448.56h32.22s0,7.74,0,7.74h-32.22s0-7.74,0-7.74ZM530.53,422.97h8.14s0,58.04,0,58.04h-8.14s0-58.04,0-58.04Z"/>
        <path class="cls-1" d="M586.08,478.96c-3.09-1.77-5.48-4.27-7.17-7.5-1.69-3.23-2.53-6.98-2.53-11.24v-16.45c0-4.26.84-8,2.53-11.24,1.69-3.24,4.08-5.74,7.17-7.5,3.09-1.77,6.65-2.66,10.7-2.66,4.04,0,7.61.88,10.7,2.66,3.09,1.77,5.48,4.27,7.17,7.5,1.69,3.23,2.53,6.98,2.53,11.24v16.45c0,4.26-.85,8-2.53,11.24-1.69,3.24-4.08,5.74-7.17,7.5-3.09,1.77-6.65,2.66-10.7,2.66-4.05,0-7.61-.88-10.7-2.66ZM603.1,471.98c1.82-1.08,3.23-2.61,4.23-4.59,1-1.98,1.5-4.28,1.5-6.89v-17.01c0-2.61-.5-4.9-1.5-6.89-1-1.98-2.41-3.51-4.23-4.59-1.82-1.08-3.93-1.62-6.33-1.62-2.4,0-4.5.54-6.33,1.62-1.82,1.08-3.23,2.61-4.23,4.59-1,1.98-1.5,4.28-1.5,6.89v17.01c0,2.61.5,4.9,1.5,6.89,1,1.98,2.41,3.51,4.23,4.59,1.82,1.08,3.93,1.62,6.33,1.62,2.4,0,4.5-.54,6.33-1.62Z"/>
        <path class="cls-1" d="M661.68,478.94c-3.05-1.78-5.41-4.31-7.09-7.58-1.68-3.27-2.51-7.07-2.51-11.38v-15.93c0-4.31.84-8.1,2.51-11.38,1.68-3.27,4.04-5.81,7.09-7.61,3.05-1.79,6.58-2.69,10.6-2.69,3.33,0,6.39.71,9.18,2.13,2.79,1.42,5.13,3.44,7.01,6.05,1.88,2.61,3.15,5.63,3.81,9.06h-8.34c-.51-1.81-1.35-3.43-2.53-4.85-1.18-1.42-2.57-2.52-4.17-3.29-1.6-.77-3.25-1.16-4.95-1.16-2.37,0-4.44.57-6.23,1.72-1.78,1.14-3.17,2.75-4.15,4.81-.99,2.06-1.48,4.46-1.48,7.2v15.93c0,2.71.49,5.11,1.48,7.19.98,2.08,2.37,3.68,4.15,4.81,1.78,1.13,3.86,1.7,6.23,1.7,1.73,0,3.39-.36,4.97-1.08,1.58-.72,2.97-1.78,4.15-3.19,1.18-1.41,2.03-3.09,2.53-5.03h8.34c-.67,3.43-1.94,6.45-3.83,9.06-1.89,2.61-4.23,4.62-7.03,6.05-2.79,1.42-5.84,2.13-9.14,2.13-4.02,0-7.55-.89-10.6-2.67Z"/>
        <path class="cls-1" d="M735.29,478.96c-3.09-1.77-5.48-4.27-7.16-7.5-1.69-3.23-2.54-6.98-2.54-11.24v-16.45c0-4.26.84-8,2.54-11.24,1.69-3.24,4.08-5.74,7.16-7.5,3.09-1.77,6.65-2.66,10.7-2.66,4.04,0,7.61.88,10.7,2.66,3.09,1.77,5.48,4.27,7.16,7.5,1.69,3.23,2.54,6.98,2.54,11.24v16.45c0,4.26-.84,8-2.54,11.24-1.69,3.24-4.08,5.74-7.16,7.5-3.09,1.77-6.65,2.66-10.7,2.66-4.05,0-7.61-.88-10.7-2.66ZM752.32,471.98c1.82-1.08,3.23-2.61,4.23-4.59,1-1.98,1.5-4.28,1.5-6.89v-17.01c0-2.61-.5-4.9-1.5-6.89-1-1.98-2.41-3.51-4.23-4.59-1.82-1.08-3.93-1.62-6.33-1.62s-4.5.54-6.33,1.62c-1.82,1.08-3.23,2.61-4.23,4.59-1,1.98-1.5,4.28-1.5,6.89v17.01c0,2.61.5,4.9,1.5,6.89,1,1.98,2.41,3.51,4.23,4.59,1.82,1.08,3.93,1.62,6.33,1.62,2.4,0,4.5-.54,6.33-1.62Z"/>
        <path class="cls-1" d="M803.29,422.97h8.14s0,58.04,0,58.04h-8.14s0-58.04,0-58.04ZM807.36,473.27h33.21s0,7.74,0,7.74h-33.21s0-7.74,0-7.74Z"/>
        <path class="cls-1" d="M891.29,422.97h6.95s21.4,58.04,21.4,58.04h-8.78s-16.09-46.83-16.09-46.83l-16.09,46.83h-8.78s21.4-58.04,21.4-58.04ZM879.75,460.54h30.54s0,7.74,0,7.74h-30.54s0-7.74,0-7.74Z"/>
        <path class="cls-1" d="M943.36,422.97h40.96s0,7.74,0,7.74h-40.96s0-7.74,0-7.74ZM959.77,427.72h8.14s0,53.29,0,53.29h-8.14s0-53.29,0-53.29Z"/>
        <path class="cls-1" d="M1016.83,422.97h8.14s0,58.04,0,58.04h-8.14s0-58.04,0-58.04ZM1020.78,422.97h33.33s0,7.74,0,7.74h-33.33s0-7.74,0-7.74ZM1020.78,448.32h28.94s0,7.74,0,7.74h-28.94s0-7.74,0-7.74ZM1020.78,473.27h33.33s0,7.74,0,7.74h-33.33s0-7.74,0-7.74Z"/>
      </g>
    </g>
  </g>
</svg>